# xmcd CD database file
#
# Track frame offsets:
#	150
#	39812
#	76095
#	119061
#	145652
#	178742
#
# Disc length: 2588 seconds
#
# Revision: 0
# Processed by: cddbd v1.5.1PL2 Copyright (c) Steve Scherf et al.
# Submitted via: CDex 1.51
#
DISCID=450a1a06
DTITLE=The Ron Thomas Trio - Music In Three Parts
DYEAR=2004
DGENRE=Jazz
TTITLE0=Impromptu
TTITLE1=Caprice
TTITLE2=Impromptu 2
TTITLE3=Caprice 2
TTITLE4=Impromptu 3
TTITLE5=Epilog
EXTD=YEAR: 2004
EXTT0=
EXTT1=
EXTT2=
EXTT3=
EXTT4=
EXTT5=
PLAYORDER=
